# xmcd CD database file
#
# Track frame offsets:
#	150
#	26841
#	67430
#	91737
#	115695
#	140947
#	182050
#	215936
#
# Disc length: 3226 seconds
#
# Revision: 0
# Processed by: cddbd v1.5.1PL2 Copyright (c) Steve Scherf et al.
# Submitted via: CDex 1.50
#
DISCID=810c9808
DTITLE=Alex Clement - Emily's Song
DYEAR=2005
DGENRE=Jazz
TTITLE0=A Song for Ethan
TTITLE1=Inspired by...
TTITLE2=Emily's Song
TTITLE3=Pieces of Dreams
TTITLE4=Dinner for Two
TTITLE5=I Loves you Porgy
TTITLE6=You Must Believe in Spring
TTITLE7=Waltz for Peace
EXTD=YEAR: 2005
EXTT0=
EXTT1=
EXTT2=
EXTT3=
EXTT4=
EXTT5=
EXTT6=
EXTT7=
PLAYORDER=
